<?xml version="1.0" encoding="UTF-8"?>
<svg width="74px" height="74px" viewBox="0 0 74 74" version="1.1" xmlns="http://www.w3.org/2000/svg" xmlns:xlink="http://www.w3.org/1999/xlink">
    <!-- Generator: Sketch 54.1 (76490) - https://sketchapp.com -->
    <title>Group 5</title>
    <desc>Created with Sketch.</desc>
    <g id="Page-1" stroke="none" stroke-width="1" fill="none" fill-rule="evenodd">
        <g id="Desktop-HD-Copy" transform="translate(-1108.000000, -1647.000000)">
            <g id="Group-5" transform="translate(1145.000000, 1684.000000) scale(-1, 1) translate(-1145.000000, -1684.000000) translate(1108.000000, 1647.000000)">
                <circle id="Oval" fill="#FFFFFF" opacity="0.5" cx="37" cy="37" r="37"></circle>
                <circle id="Oval-Copy" fill="#FFFFFF" cx="37" cy="37" r="31"></circle>
                <path d="M26.3455754,38.7286811 C26.1284966,38.4387294 26,38.0781952 26,37.6855346 C26,37.2951928 26.1279156,36.9348352 26.3447375,36.6443801 C26.4259772,36.4509065 26.543876,36.2688315 26.6986753,36.1085321 L34.0654214,28.4800431 C34.7335854,27.788139 35.8314783,27.7643936 36.5284112,28.4374139 C37.2205188,29.1057745 37.2414846,30.2068759 36.571765,30.9003909 L31.7017677,35.9434208 L45.3847705,35.9434208 C46.3497804,35.9434208 47.1320755,36.7166838 47.1320755,37.6855346 C47.1320755,38.6476775 46.3549117,39.4276484 45.3847705,39.4276484 L31.7017677,39.4276484 L36.571765,44.4706782 C37.2414846,45.1641932 37.2205188,46.2652947 36.5284112,46.9336553 C35.8314783,47.6066756 34.7335854,47.5829302 34.0654214,46.8910261 L26.6986753,39.2625371 C26.5444073,39.102788 26.426787,38.9214124 26.3455754,38.7286811 Z" id="Back-Arrow-(30x30)" fill="#00B4CD"></path>
            </g>
        </g>
    </g>
</svg>